<?xml version="1.0" encoding="utf-8"?>
<!-- Generator: Adobe Illustrator 26.2.1, SVG Export Plug-In . SVG Version: 6.00 Build 0)  -->
<svg version="1.1" id="Layer_1" xmlns="http://www.w3.org/2000/svg" xmlns:xlink="http://www.w3.org/1999/xlink" x="0px" y="0px"
	 viewBox="0 0 1000 1000" style="enable-background:new 0 0 1000 1000;" xml:space="preserve">
<style type="text/css">
	.st0{fill:#575C9E;}
	.st1{opacity:0.82;fill:#7A80DD;}
	.st2{opacity:0.8;}
	.st3{fill:#8188EB;}
	.st4{fill:#7A80DD;}
</style>
<g>
	<defs>
		<rect id="SVGID_1_" x="123.1" y="29.3" width="576.7" height="833"/>
	</defs>
	<clipPath id="SVGID_00000064331857385285916660000017720966486999588224_">
		<use xlink:href="#SVGID_1_"  style="overflow:visible;"/>
	</clipPath>
</g>
<path class="st0" d="M408.8,60.6c-31.7,3.1-61.3,23.1-75.9,51.5c-17.6,34.2-13.2,75.7-25.4,112.2c-15.8,47.4-57,81.1-84.7,122.7
	c-32.9,49.6-45.9,109.3-58.3,167.6c-8.2,38.7-16.3,79.7-3,116.9c18.1,50.8,78.6,82.2,130.6,67.6c88.1-24.7,115.1-146.8,199.9-181.2
	c43.9-17.9,98.3-9.5,135.3-39.1c43.8-35.1,39-102.3,27.6-157.2c-8.7-41.8-18.8-83.3-29-124.8c-8.2-33.6-17.2-68.8-40.6-94.3
	c-28.9-31.5-52.6-19.9-87.6-20.6C466.9,81,442.7,57.3,408.8,60.6z"/>
<path class="st1" d="M520.2,354.8c-6.7,30.4-5.8,62.4-15.7,91.9c-13.2,39.9-44.3,70.7-69.3,104.4c-25,33.7-45.1,76.9-31.9,116.8
	c17.6,53.1,82.1,71.4,137,81.8c58.4,11.1,116.9,22.2,175.3,33.3c31,5.9,64.9,11.4,92.8-3.4c35.5-18.8,48-62.8,54.6-102.3
	C889.2,520.2,908,106.9,629.4,224C575,246.8,533,297.2,520.2,354.8z"/>
<g class="st2">
	<path class="st3" d="M650.6,590.1c-40.4,3.9-75.2,29.6-104.8,57.4c-29.6,27.8-56.8,59.1-92.2,78.9c-37.1,20.8-80.5,27.6-118.5,46.6
		c-28.1,14.1-53.5,35.6-67.2,63.9c-13.7,28.3-14.2,64,3.1,90.2c30.7,46.6,97.7,46.5,153.3,41.3c69.5-6.5,138.9-13,208.4-19.6
		c55.1-5.2,115.5-12.9,152.8-53.7c31.1-34.1,38.3-85.5,26.9-130.3C796.2,701.8,726.8,582.7,650.6,590.1z"/>
</g>
<g>
	<path class="st4" d="M547.8,598.8c-30.7,0-61.6-11.5-83.8-32.5c-31.1-29.4-44.5-76.9-33.5-118.3c3.3-12.5,8.8-24.6,14-36.3
		c8.1-18.1,16.5-36.8,16.9-56.7c0.5-19.8-6.9-38.9-14.1-57.3c-6.1-15.6-12.4-31.8-14-48.7c-3.1-31.5,16.3-68.9,45-86.9
		c21.5-13.5,44.6-14.2,64.9-1.9c49.4,30,88.2,104.5,112,161.8c23.5,56.5,31.2,108.2,22.8,153.6c-10.3,55.9-47.2,102-94.1,117.4
		C572.3,597,560,598.8,547.8,598.8z M512.9,153.4c-11.2,0-22.6,3.5-33.6,10.4c-28.2,17.7-47.2,54.3-44.2,85.2
		c1.6,16.6,7.9,32.6,13.9,48.2c7.2,18.6,14.7,37.8,14.2,58c-0.5,20.2-8.9,39.1-17.1,57.3c-5.2,11.6-10.6,23.7-13.9,36
		c-10.9,40.7,2.3,87.5,33,116.5c30.6,29,78.1,39.6,118.2,26.4c46.3-15.2,82.8-60.8,92.9-116c8.3-45.1,0.7-96.5-22.7-152.6
		c-23.7-57-62.3-131.2-111.3-160.9C533,156.2,523,153.4,512.9,153.4z"/>
</g>
</svg>
