<?xml version="1.0" encoding="UTF-8"?>
<svg xmlns="http://www.w3.org/2000/svg" viewBox="0 0 75 75">

    <path d="M60.1852,75H0V0H75V60.1852c0,8.1688-6.6461,14.8148-14.8148,14.8148Zm-54.6296-5.5556H60.1852c5.1053,0,9.2593-4.154,9.2593-9.2593V5.5556H5.5556v63.8889Z"
          fill="#2b2e4c"/>

    <path d="M40.1078,45.5479c-2.2911,0-3.2868,1.1149-3.2868,3.649h6.5441c0-2.5342-.9945-3.649-3.2573-3.649Z"
          fill="#2b2e4c"/>
    <path d="M49.5064,21.1815c-.4999-.2353-1.2065-.3533-2.589-.3533h-1.1185v4.2372h1.5012c1.1178,0,1.9124-.147,2.3829-.4413,.5593-.3236,.8533-.8829,.8533-1.6771,0-.9123-.412-1.4711-1.0299-1.7654Z"
          fill="#2b2e4c"/>
    <path d="M59.2548,51.171v-.8853c2.0255-.4937,3.5292-2.3203,3.5292-4.4976v-2.804c0-1.0212-.3403-1.9578-.9002-2.7233,.1865-.2239,.3604-.4601,.5042-.7209,.8147-1.4766,.7604-3.2805-.1401-4.7065l-3.3927-5.372c1.5399-1.851,2.3718-4.192,2.3718-6.8382,0-4.3132-2.2045-7.8577-6.0004-9.7023-2.1123-1.0557-4.6676-1.5476-8.044-1.5476h-7.4445c-.5939,0-1.1572,.1218-1.679,.3256-.5217-.2038-1.085-.3256-1.6789-.3256h-6.0605c-1.5711,0-2.9591,.7822-3.796,1.9785-.8369-1.1963-2.2249-1.9785-3.796-1.9785h-6.061c-2.5567,0-4.6296,2.0729-4.6296,4.6296v21.3027c0,1.0759,.382,2.0532,.9976,2.8392-.6155,.786-.9976,1.7634-.9976,2.8393v15.6521c0,2.5571,2.0729,4.6296,4.6296,4.6296h3.6196c1.0815,0,2.0761-.3707,2.8646-.9919,.788,.6212,1.7827,.9919,2.8641,.9919h3.6196c1.3766,0,2.5994-.6127,3.4474-1.5666,1.8723,1.2441,4.2645,1.9274,7.0873,1.9274,3.952,0,6.6884-1.2557,8.4677-3.0858,1.5591,1.7585,3.8723,2.725,6.801,2.725h2.8953c2.5572,0,4.6296-2.0725,4.6296-4.6296v-2.927c0-2.2415-1.5933-4.1106-3.7082-4.5383Zm-29.6201,7.4653h-3.6196v-10.0139c0-1.9301-.7232-2.8043-2.2014-2.8043-1.5078,0-2.6533,.8742-3.5275,2.6545v10.1637h-3.6195v-15.652h3.0756l.1215,2.1414c1.2659-1.7509,2.8043-2.5047,4.8547-2.5047,3.2574,0,4.9161,1.9301,4.9161,5.6699v10.3455Zm.6847-21.3307v-8.5033h-7.5915v8.5033h-6.0612V16.0027h6.0612v7.6797h7.5915v-7.6797h6.0609v21.3027h-6.0609Zm16.4836,14.5754h-9.982v.4814c0,2.5341,1.0252,3.7103,3.3481,3.7103,1.8995,0,2.9247-.8152,3.0757-2.1707h3.4686c-.2112,3.347-2.5342,5.0954-6.5443,5.0954-4.5845,0-6.9665-2.2911-6.9665-6.6646v-3.0768c0-4.3121,2.3525-6.635,6.7849-6.635s6.8155,2.3524,6.8155,6.6669v2.5931Zm11.5303,6.7554h-2.8951c-3.1063,0-4.4323-1.4782-4.4323-5.007v-7.8407h-2.4728v-2.8044h2.5317l.2432-4.0124h3.3175v4.0124h3.5287v2.8044h-3.5287v7.7203c0,1.7189,.4224,2.2003,1.9301,2.2003h1.7778v2.927Zm-6.8551-21.3307l-4.7374-8.0914h-.9419v8.0914h-6.0605V16.0027h7.4437c2.589,0,4.5021,.3235,5.9733,1.0591,2.059,1.0006,3.4422,2.7953,3.4422,5.5614,0,2.6187-1.2651,4.6194-3.9135,5.7372l5.6493,8.9449h-6.8551Z"
          fill="#2b2e4c"/>

</svg>